<mxfile host="app.diagrams.net" modified="2024-02-07T18:01:28.544Z" agent="Mozilla/5.0 (Macintosh; Intel Mac OS X 10_15_7) AppleWebKit/537.36 (KHTML, like Gecko) Chrome/121.0.0.0 Safari/537.36" etag="x9A6BkIWkgSTbUNk-66M" version="23.1.1" type="github">
  <diagram name="Page-1" id="XLOUNeaLsx4_dOywKiJr">
    <mxGraphModel dx="533" dy="360" grid="1" gridSize="10" guides="1" tooltips="1" connect="1" arrows="1" fold="1" page="1" pageScale="1" pageWidth="827" pageHeight="1169" math="0" shadow="0">
      <root>
        <mxCell id="0" />
        <mxCell id="1" parent="0" />
        <mxCell id="-B4neHWn0Ctnw08VZMBP-1" value="&lt;font style=&quot;font-size: 16px;&quot;&gt;BankAccount&lt;/font&gt;" style="swimlane;fontStyle=1;align=center;verticalAlign=top;childLayout=stackLayout;horizontal=1;startSize=26;horizontalStack=0;resizeParent=1;resizeParentMax=0;resizeLast=0;collapsible=1;marginBottom=0;whiteSpace=wrap;html=1;" vertex="1" parent="1">
          <mxGeometry x="230" y="130" width="370" height="490" as="geometry" />
        </mxCell>
        <mxCell id="-B4neHWn0Ctnw08VZMBP-2" value="&lt;font style=&quot;font-size: 18px;&quot;&gt;- firstName: String&lt;br&gt;- lastName: String&lt;br&gt;- dateOfBirth: locateDate or String&lt;br&gt;- accountNumber: int&lt;br&gt;- balance: int&lt;br&gt;- accountType: String&lt;br&gt;&lt;/font&gt;" style="text;strokeColor=none;fillColor=none;align=left;verticalAlign=top;spacingLeft=4;spacingRight=4;overflow=hidden;rotatable=0;points=[[0,0.5],[1,0.5]];portConstraint=eastwest;whiteSpace=wrap;html=1;" vertex="1" parent="-B4neHWn0Ctnw08VZMBP-1">
          <mxGeometry y="26" width="370" height="144" as="geometry" />
        </mxCell>
        <mxCell id="-B4neHWn0Ctnw08VZMBP-3" value="" style="line;strokeWidth=1;fillColor=none;align=left;verticalAlign=middle;spacingTop=-1;spacingLeft=3;spacingRight=3;rotatable=0;labelPosition=right;points=[];portConstraint=eastwest;strokeColor=inherit;" vertex="1" parent="-B4neHWn0Ctnw08VZMBP-1">
          <mxGeometry y="170" width="370" height="8" as="geometry" />
        </mxCell>
        <mxCell id="-B4neHWn0Ctnw08VZMBP-4" value="&lt;font style=&quot;font-size: 17px;&quot;&gt;+ getFirstName(): String&lt;br&gt;+ setFirstName(): void&lt;br&gt;+ getLastName(): String&lt;br&gt;+ setLastName(): void&lt;br&gt;+ getDateOfBirth(): String&lt;br&gt;+ set DateOfBirth(): void&lt;br&gt;+ getAccountNumber: int&lt;br&gt;+ setAccountNumber: void&lt;br&gt;+ getBalance: int&lt;br&gt;+ setBalance: void&lt;br&gt;---------------------------------------------------------------&lt;br&gt;+ deposit(int): void&lt;br&gt;+ withdrawal(int): void&lt;br&gt;+ interest(): void&lt;br&gt;&lt;br&gt;&lt;br&gt;&lt;/font&gt;" style="text;strokeColor=none;fillColor=none;align=left;verticalAlign=top;spacingLeft=4;spacingRight=4;overflow=hidden;rotatable=0;points=[[0,0.5],[1,0.5]];portConstraint=eastwest;whiteSpace=wrap;html=1;" vertex="1" parent="-B4neHWn0Ctnw08VZMBP-1">
          <mxGeometry y="178" width="370" height="312" as="geometry" />
        </mxCell>
      </root>
    </mxGraphModel>
  </diagram>
</mxfile>
